# xmcd
#
# Track frame offsets: 
#        150
#        34239
#        67476
#        99564
#        128236
#        162811
#        195045
#        221296
#        260169
#
# Disc length: 3914 seconds
#
# Revision: 1
# Processed by: cddbd v1.5.2PL0 Copyright (c) Steve Scherf et al.
# Submitted via: ExactAudioCopy v0.99pb5
#
DISCID=800f4809
DTITLE=Frank Gambale - Natural High
DYEAR=2005
DGENRE=Wombat Records
TTITLE0=You Are All The Things
TTITLE1=We'll Remember December
TTITLE2=D's Living Room
TTITLE3=Fortune
TTITLE4=The Long And Short Of It
TTITLE5=Have You Met Tom Jones
TTITLE6=Principesa
TTITLE7=Scottish Highlands
TTITLE8=Another Challenger
EXTD=YEAR: 2005
EXTT0=
EXTT1=
EXTT2=
EXTT3=
EXTT4=
EXTT5=
EXTT6=
EXTT7=
EXTT8=
PLAYORDER=
